<svg width="206" height="14" viewBox="0 0 206 14" fill="none" xmlns="http://www.w3.org/2000/svg">
<path fill-rule="evenodd" clip-rule="evenodd" d="M199.045 0.3125L205.683 6.79429L199.045 13.2761L198.098 12.3508L203.788 6.79429L198.098 1.23776L199.045 0.3125Z" fill="white"/>
<path fill-rule="evenodd" clip-rule="evenodd" d="M204.736 7.44841L164.228 7.44841L164.228 6.13989L204.736 6.1399L204.736 7.44841Z" fill="white"/>
<path fill-rule="evenodd" clip-rule="evenodd" d="M6.63807 13.2761L2.29917e-05 6.79433L6.63807 0.312542L7.58563 1.23781L1.89516 6.79433L7.58563 12.3509L6.63807 13.2761Z" fill="white"/>
<path fill-rule="evenodd" clip-rule="evenodd" d="M0.947579 6.14021L41.4556 6.14021L41.4556 7.44873L0.947578 7.44872L0.947579 6.14021Z" fill="white"/>
<rect x="125.164" y="1.73486" width="9.56667" height="9.34148" rx="4.67074" fill="white" fill-opacity="0.3"/>
<rect x="98.0583" y="1.73486" width="9.56667" height="9.34148" rx="4.67074" fill="white" fill-opacity="0.3"/>
<rect x="70.9528" y="1.73462" width="9.56667" height="9.34148" rx="4.67074" fill="white"/>
</svg>
